// Created by Crowbar 0.68
version 1
nodes
  0 "weapon_bone_L" -1
  1 "OrientBase" 0
  2 "bottom_left" 1
  3 "OrientBase1" 0
  4 "top_right" 3
end
skeleton
  time 0
    0 0.000000 0.000000 0.000000 0.000000 0.000000 0.000000
    1 1.269718 0.098188 -0.540804 1.534750 1.486455 1.618756
    2 0.000000 0.000000 0.000000 0.000000 0.000000 0.000000
    3 1.324459 -0.589014 0.485902 -3.141593 1.539887 3.105407
    4 -0.100989 -0.037867 0.001500 0.000000 0.000000 0.060382
end
triangles
  phy
    0 0.164306 -1.776702 0.364716 0.704404 0.678154 0.209575 0 0
    0 0.926802 -1.436095 -0.578845 -0.204616 0.731726 0.650160 0 0
    0 1.379759 -0.706512 0.557226 0.286351 0.307943 0.907289 0 0
  phy
    0 0.926802 -1.436095 -0.578845 -0.204616 0.731726 0.650160 0 0
    0 1.272303 -0.486401 -0.728841 -0.981490 -0.000643 0.191511 0 0
    0 1.379759 -0.706512 0.557226 0.286351 0.307943 0.907289 0 0
  phy
    0 0.926802 -1.436095 -0.578845 -0.204616 0.731726 0.650160 0 0
    0 0.164306 -1.776702 0.364716 0.704404 0.678154 0.209575 0 0
    0 -0.095154 -1.702035 -0.569121 -0.864392 0.208172 -0.457701 0 0
  phy
    0 0.926802 -1.436095 -0.578845 -0.204616 0.731726 0.650160 0 0
    0 -0.095154 -1.702035 -0.569121 -0.864392 0.208172 -0.457701 0 0
    0 1.272303 -0.486401 -0.728841 -0.981490 -0.000643 0.191511 0 0
  phy
    0 -0.159909 1.791639 0.655175 0.508572 -0.822458 0.254790 0 0
    0 1.252183 0.519619 0.821848 0.947703 -0.144061 0.284789 0 0
    0 0.224643 1.784397 -0.301731 -0.069522 -0.807105 0.586300 0 0
  phy
    0 0.224643 1.784397 -0.301731 -0.069522 -0.807105 0.586300 0 0
    0 1.252183 0.519619 0.821848 0.947703 -0.144061 0.284789 0 0
    0 1.256573 0.657249 -0.568825 -0.507826 -0.360388 0.782453 0 0
  phy
    0 0.224643 1.784397 -0.301731 -0.069522 -0.807105 0.586300 0 0
    0 -0.646609 1.802226 -0.301059 -0.824958 -0.122810 -0.551690 0 0
    0 -0.159909 1.791639 0.655175 0.508572 -0.822458 0.254790 0 0
  phy
    0 0.224643 1.784397 -0.301731 -0.069522 -0.807105 0.586300 0 0
    0 1.256573 0.657249 -0.568825 -0.507826 -0.360388 0.782453 0 0
    0 -0.646609 1.802226 -0.301059 -0.824958 -0.122810 -0.551690 0 0
  phy
    0 -0.095154 -1.702035 -0.569121 -0.864392 0.208172 -0.457701 0 0
    0 0.164306 -1.776702 0.364716 0.704404 0.678154 0.209575 0 0
    0 -0.531878 -1.536199 0.401357 0.597360 0.243663 -0.764061 0 0
  phy
    0 1.379759 -0.706512 0.557226 0.286351 0.307943 0.907289 0 0
    0 1.252183 0.519619 0.821848 0.947703 -0.144061 0.284789 0 0
    0 0.164306 -1.776702 0.364716 0.704404 0.678154 0.209575 0 0
  phy
    0 0.164306 -1.776702 0.364716 0.704404 0.678154 0.209575 0 0
    0 1.252183 0.519619 0.821848 0.947703 -0.144061 0.284789 0 0
    0 -0.531878 -1.536199 0.401357 0.597360 0.243663 -0.764061 0 0
  phy
    0 -0.159909 1.791639 0.655175 0.508572 -0.822458 0.254790 0 0
    0 -0.646609 1.802226 -0.301059 -0.824958 -0.122810 -0.551690 0 0
    0 -0.998240 1.598129 0.612144 0.858307 0.008108 -0.513073 0 0
  phy
    0 -0.998240 1.598129 0.612144 0.858307 0.008108 -0.513073 0 0
    0 1.252183 0.519619 0.821848 0.947703 -0.144061 0.284789 0 0
    0 -0.159909 1.791639 0.655175 0.508572 -0.822458 0.254790 0 0
  phy
    0 -0.095154 -1.702035 -0.569121 -0.864392 0.208172 -0.457701 0 0
    0 -0.531878 -1.536199 0.401357 0.597360 0.243663 -0.764061 0 0
    0 -0.646609 1.802226 -0.301059 -0.824958 -0.122810 -0.551690 0 0
  phy
    0 -0.095154 -1.702035 -0.569121 -0.864392 0.208172 -0.457701 0 0
    0 -0.646609 1.802226 -0.301059 -0.824958 -0.122810 -0.551690 0 0
    0 1.272303 -0.486401 -0.728841 -0.981490 -0.000643 0.191511 0 0
  phy
    0 1.256573 0.657249 -0.568825 -0.507826 -0.360388 0.782453 0 0
    0 1.252183 0.519619 0.821848 0.947703 -0.144061 0.284789 0 0
    0 1.379759 -0.706512 0.557226 0.286351 0.307943 0.907289 0 0
  phy
    0 1.379759 -0.706512 0.557226 0.286351 0.307943 0.907289 0 0
    0 1.272303 -0.486401 -0.728841 -0.981490 -0.000643 0.191511 0 0
    0 1.256573 0.657249 -0.568825 -0.507826 -0.360388 0.782453 0 0
  phy
    0 -0.646609 1.802226 -0.301059 -0.824958 -0.122810 -0.551690 0 0
    0 1.256573 0.657249 -0.568825 -0.507826 -0.360388 0.782453 0 0
    0 1.272303 -0.486401 -0.728841 -0.981490 -0.000643 0.191511 0 0
  phy
    0 -0.531878 -1.536199 0.401357 0.597360 0.243663 -0.764061 0 0
    0 -0.998240 1.598129 0.612144 0.858307 0.008108 -0.513073 0 0
    0 -0.646609 1.802226 -0.301059 -0.824958 -0.122810 -0.551690 0 0
  phy
    0 -0.531878 -1.536199 0.401357 0.597360 0.243663 -0.764061 0 0
    0 1.252183 0.519619 0.821848 0.947703 -0.144061 0.284789 0 0
    0 -0.998240 1.598129 0.612144 0.858307 0.008108 -0.513073 0 0
end
