// Created by Crowbar 0.68
version 1
nodes
  0 "weapon_bone_L" -1
  1 "OrientBase" 0
  2 "bottom_left" 1
  3 "OrientBase1" 0
  4 "top_right" 3
end
skeleton
  time 0
    0 0.000000 0.000000 0.000000 1.570792 0.000005 -0.000005
    1 1.269718 0.098188 -0.540804 1.534750 1.486455 1.618756
    2 0.000000 0.000000 0.000000 0.000000 0.000000 0.000000
    3 1.324459 -0.589014 0.485902 -3.141593 1.539887 3.105407
    4 -0.100989 -0.037867 0.001500 0.000000 0.000000 0.060382
  time 1
    0 0.000000 0.000000 0.000000 1.570792 0.000005 -0.000005
    1 1.269718 0.098188 -0.540804 1.534750 1.486455 1.618756
    2 0.000000 0.000000 0.000000 0.000000 0.000000 0.000000
    3 1.324459 -0.589014 0.485902 -3.141593 1.539887 3.105407
    4 -0.100989 -0.037867 0.001500 0.000000 0.000000 0.060382
  time 2
    0 0.000000 0.000000 0.000000 1.570792 0.000005 -0.000005
    1 1.269718 0.098188 -0.540804 1.534750 1.486455 1.618756
    2 0.000000 0.000000 0.000000 0.000000 0.000000 0.000000
    3 1.324459 -0.589014 0.485902 -3.141593 1.539887 3.105407
    4 -0.100989 -0.037867 0.001500 0.000000 0.000000 0.060382
  time 3
    0 0.000000 0.000000 0.000000 1.570792 0.000005 -0.000005
    1 1.269718 0.098188 -0.540804 1.534750 1.486455 1.618756
    2 0.000000 0.000000 0.000000 0.000000 0.000000 0.000000
    3 1.324459 -0.589014 0.485902 -3.141593 1.539887 3.105407
    4 -0.100989 -0.037867 0.001500 0.000000 0.000000 0.060382
  time 4
    0 0.000000 0.000000 0.000000 1.570792 0.000005 -0.000005
    1 1.269718 0.098188 -0.540804 1.534750 1.486455 1.618756
    2 0.000000 0.000000 0.000000 0.000000 0.000000 0.000000
    3 1.324459 -0.589014 0.485902 -3.141593 1.539887 3.105407
    4 -0.100989 -0.037867 0.001500 0.000000 0.000000 0.060382
  time 5
    0 0.000000 0.000000 0.000000 1.570792 0.000005 -0.000005
    1 1.269718 0.098188 -0.540804 1.534750 1.486455 1.618756
    2 0.000000 0.000000 0.000000 0.000000 0.000000 0.000000
    3 1.324459 -0.589014 0.485902 -3.141593 1.539887 3.105407
    4 -0.100989 -0.037867 0.001500 0.000000 0.000000 0.060382
  time 6
    0 0.000000 0.000000 0.000000 1.570792 0.000005 -0.000005
    1 1.269718 0.098188 -0.540804 1.534750 1.486455 1.618756
    2 0.000000 0.000000 0.000000 0.000000 0.000000 0.000000
    3 1.324459 -0.589014 0.485902 -3.141593 1.539887 3.105407
    4 -0.100989 -0.037867 0.001500 0.000000 0.000000 0.060382
  time 7
    0 0.000000 0.000000 0.000000 1.570792 0.000005 -0.000005
    1 1.269718 0.098188 -0.540804 1.534750 1.486455 1.618756
    2 0.000000 0.000000 0.000000 0.000000 0.000000 0.000000
    3 1.324459 -0.589014 0.485902 -3.141593 1.539887 3.105407
    4 -0.100989 -0.037867 0.001500 0.000000 0.000000 0.060382
  time 8
    0 0.000000 0.000000 0.000000 1.570792 0.000005 -0.000005
    1 1.269718 0.098188 -0.540804 1.534750 1.486455 1.618756
    2 0.000000 0.000000 0.000000 0.000000 0.000000 0.000000
    3 1.324459 -0.589014 0.485902 -3.141593 1.539887 3.105407
    4 -0.100989 -0.037867 0.001500 0.000000 0.000000 0.060382
  time 9
    0 0.000000 0.000000 0.000000 1.570792 0.000005 -0.000005
    1 1.269718 0.098188 -0.540804 1.534750 1.486455 1.618756
    2 0.000000 0.000000 0.000000 0.000000 0.000000 0.000000
    3 1.324459 -0.589014 0.485902 -3.141593 1.539887 3.105407
    4 -0.100989 -0.037867 0.001500 0.000000 0.000000 0.060382
  time 10
    0 0.000000 0.000000 0.000000 1.570792 0.000005 -0.000005
    1 1.269718 0.098188 -0.540804 1.534750 1.486455 1.618756
    2 0.000000 0.000000 0.000000 0.000000 0.000000 0.000000
    3 1.324459 -0.589014 0.485902 -3.141593 1.539887 3.105407
    4 -0.100989 -0.037867 0.001500 0.000000 0.000000 0.060382
  time 11
    0 0.000000 0.000000 0.000000 1.570792 0.000005 -0.000005
    1 1.269718 0.098188 -0.540804 1.534750 1.486455 1.618756
    2 0.000000 0.000000 0.000000 0.000000 0.000000 0.000000
    3 1.324459 -0.589014 0.485902 -3.141593 1.539887 3.105407
    4 -0.100989 -0.037867 0.001500 0.000000 0.000000 0.060382
  time 12
    0 0.000000 0.000000 0.000000 1.570792 0.000005 -0.000005
    1 1.269718 0.098188 -0.540804 1.534750 1.486455 1.618756
    2 0.000000 0.000000 0.000000 0.000000 0.000000 0.000000
    3 1.324459 -0.589014 0.485902 -3.141593 1.539887 3.105407
    4 -0.100989 -0.037867 0.001500 0.000000 0.000000 0.060382
  time 13
    0 0.000000 0.000000 0.000000 1.570792 0.000005 -0.000005
    1 1.269718 0.098188 -0.540804 1.534750 1.486455 1.618756
    2 0.000000 0.000000 0.000000 0.000000 0.000000 0.000000
    3 1.324459 -0.589014 0.485902 -3.141593 1.539887 3.105407
    4 -0.100989 -0.037867 0.001500 0.000000 0.000000 0.060382
  time 14
    0 0.000000 0.000000 0.000000 1.570792 0.000005 -0.000005
    1 1.269718 0.098188 -0.540804 1.534750 1.486455 1.618756
    2 0.000000 0.000000 0.000000 0.000000 0.000000 0.000000
    3 1.324459 -0.589014 0.485902 -3.141593 1.539887 3.105407
    4 -0.100989 -0.037867 0.001500 0.000000 0.000000 0.060382
  time 15
    0 0.000000 0.000000 0.000000 1.570792 0.000005 -0.000005
    1 1.269718 0.098188 -0.540804 1.534750 1.486455 1.618756
    2 0.000000 0.000000 0.000000 0.000000 0.000000 0.000000
    3 1.324459 -0.589014 0.485902 -3.141593 1.539887 3.105407
    4 -0.100989 -0.037867 0.001500 0.000000 0.000000 0.060382
  time 16
    0 0.000000 0.000000 0.000000 1.570792 0.000005 -0.000005
    1 1.269718 0.098188 -0.540804 1.534750 1.486455 1.618756
    2 0.000000 0.000000 0.000000 0.000000 0.000000 0.000000
    3 1.324459 -0.589014 0.485902 -3.141593 1.539887 3.105407
    4 -0.100989 -0.037867 0.001500 0.000000 0.000000 0.060382
  time 17
    0 0.000000 0.000000 0.000000 1.570792 0.000005 -0.000005
    1 1.269718 0.098188 -0.540804 1.534750 1.486455 1.618756
    2 0.000000 0.000000 0.000000 0.000000 0.000000 0.000000
    3 1.324459 -0.589014 0.485902 -3.141593 1.539887 3.105407
    4 -0.100989 -0.037867 0.001500 0.000000 0.000000 0.060382
  time 18
    0 0.000000 0.000000 0.000000 1.570792 0.000005 -0.000005
    1 1.269718 0.098188 -0.540804 1.534750 1.486455 1.618756
    2 0.000000 0.000000 0.000000 0.000000 0.000000 0.000000
    3 1.324459 -0.589014 0.485902 -3.141593 1.539887 3.105407
    4 -0.100989 -0.037867 0.001500 0.000000 0.000000 0.060382
  time 19
    0 0.000000 0.000000 0.000000 1.570792 0.000005 -0.000005
    1 1.269718 0.098188 -0.540804 1.534750 1.486455 1.618756
    2 0.000000 0.000000 0.000000 0.000000 0.000000 0.000000
    3 1.324459 -0.589014 0.485902 -3.141593 1.539887 3.105407
    4 -0.100989 -0.037867 0.001500 0.000000 0.000000 0.060382
  time 20
    0 0.000000 0.000000 0.000000 1.570792 0.000005 -0.000005
    1 1.269718 0.098188 -0.540804 1.534750 1.486455 1.618756
    2 0.000000 0.000000 0.000000 0.000000 0.000000 0.000000
    3 1.324459 -0.589014 0.485902 -3.141593 1.539887 3.105407
    4 -0.100989 -0.037867 0.001500 0.000000 0.000000 0.060382
  time 21
    0 0.000000 0.000000 0.000000 1.570792 0.000005 -0.000005
    1 1.269718 0.098188 -0.540804 1.534750 1.486455 1.618756
    2 0.000000 0.000000 0.000000 0.000000 0.000000 0.000000
    3 1.324459 -0.589014 0.485902 -3.141593 1.539887 3.105407
    4 -0.100989 -0.037867 0.001500 0.000000 0.000000 0.060382
  time 22
    0 0.000000 0.000000 0.000000 1.570792 0.000005 -0.000005
    1 1.269718 0.098188 -0.540804 1.534750 1.486455 1.618756
    2 0.000000 0.000000 0.000000 0.000000 0.000000 0.000000
    3 1.324459 -0.589014 0.485902 -3.141593 1.539887 3.105407
    4 -0.100989 -0.037867 0.001500 0.000000 0.000000 0.060382
  time 23
    0 0.000000 0.000000 0.000000 1.570792 0.000005 -0.000005
    1 1.269718 0.098188 -0.540804 1.534750 1.486455 1.618756
    2 0.000000 0.000000 0.000000 0.000000 0.000000 0.000000
    3 1.324459 -0.589014 0.485902 -3.141593 1.539887 3.105407
    4 -0.100989 -0.037867 0.001500 0.000000 0.000000 0.060382
  time 24
    0 0.000000 0.000000 0.000000 1.570792 0.000005 -0.000005
    1 1.269718 0.098188 -0.540804 1.534750 1.486455 1.618756
    2 0.000000 0.000000 0.000000 0.000000 0.000000 0.000000
    3 1.324459 -0.589014 0.485902 -3.141593 1.539887 3.105407
    4 -0.100989 -0.037867 0.001500 0.000000 0.000000 0.060382
  time 25
    0 0.000000 0.000000 0.000000 1.570792 0.000005 -0.000005
    1 1.269718 0.098188 -0.540804 1.534750 1.486455 1.618756
    2 0.000000 0.000000 0.000000 0.000000 0.000000 0.000000
    3 1.324459 -0.589014 0.485902 -3.141593 1.539887 3.105407
    4 -0.100989 -0.037867 0.001500 0.000000 0.000000 0.060382
  time 26
    0 0.000000 0.000000 0.000000 1.570792 0.000005 -0.000005
    1 1.269718 0.098188 -0.540804 1.534750 1.486455 1.618756
    2 0.000000 0.000000 0.000000 0.000000 0.000000 0.000000
    3 1.324459 -0.589014 0.485902 -3.141593 1.539887 3.105407
    4 -0.100989 -0.037867 0.001500 0.000000 0.000000 0.060382
  time 27
    0 0.000000 0.000000 0.000000 1.570792 0.000005 -0.000005
    1 1.269718 0.098188 -0.540804 1.534750 1.486455 1.618756
    2 0.000000 0.000000 0.000000 0.000000 0.000000 0.000000
    3 1.324459 -0.589014 0.485902 -3.141593 1.539887 3.105407
    4 -0.100989 -0.037867 0.001500 0.000000 0.000000 0.060382
  time 28
    0 0.000000 0.000000 0.000000 1.570792 0.000005 -0.000005
    1 1.269718 0.098188 -0.540804 1.534750 1.486455 1.618756
    2 0.000000 0.000000 0.000000 0.000000 0.000000 0.000000
    3 1.324459 -0.589014 0.485902 -3.141593 1.539887 3.105407
    4 -0.100989 -0.037867 0.001500 0.000000 0.000000 0.060382
  time 29
    0 0.000000 0.000000 0.000000 1.570792 0.000005 -0.000005
    1 1.269718 0.098188 -0.540804 1.534750 1.486455 1.618756
    2 0.000000 0.000000 0.000000 0.000000 0.000000 0.000000
    3 1.324459 -0.589014 0.485902 -3.141593 1.539887 3.105407
    4 -0.100989 -0.037867 0.001500 0.000000 0.000000 0.060382
end
